<svg xmlns="http://www.w3.org/2000/svg" viewBox="0 0 400 500">
<defs>
 <linearGradient id="b" x1="0" y1="0" x2="1" y2="1"><stop stop-color="#eef7ff"/><stop offset=".45" stop-color="#819cff"/><stop offset="1" stop-color="#182b75"/></linearGradient>
 <linearGradient id="a"><stop stop-color="#9fd7ff"/><stop offset=".5" stop-color="#4668ff"/><stop offset="1" stop-color="#18204f"/></linearGradient>
 <filter id="g"><feGaussianBlur stdDeviation="6" result="b"/><feMerge><feMergeNode in="b"/><feMergeNode in="SourceGraphic"/></feMerge></filter>
</defs>
<g fill="none" stroke="#78a9ff" stroke-width="4" opacity=".75" filter="url(#g)">
 <circle cx="74" cy="150" r="15"/><circle cx="326" cy="145" r="15"/><circle cx="72" cy="285" r="15"/><circle cx="328" cy="285" r="15"/><circle cx="104" cy="385" r="15"/><circle cx="296" cy="385" r="15"/>
</g>
<path d="M135 175 Q90 120 125 80 Q160 102 176 150" fill="#18244f" stroke="#9bc6ff" stroke-width="8"/>
<path d="M265 175 Q310 120 275 80 Q240 102 224 150" fill="#18244f" stroke="#9bc6ff" stroke-width="8"/>
<path d="M200 70 Q235 80 245 125 L230 180 200 210 170 180 155 125 Q165 80 200 70Z" fill="url(#b)" stroke="#c9e5ff" stroke-width="7"/>
<path d="M177 105 L200 93 223 105 210 125 200 116 190 125Z" fill="#151b48"/>
<path d="M170 180 L125 300 170 320 200 250 230 320 275 300 230 180Z" fill="url(#b)" stroke="#27366e" stroke-width="8"/>
<path d="M150 315 L112 430 165 390 200 300 235 390 288 430 250 315" fill="#17244e" stroke="#86b5ff" stroke-width="8"/>
<path d="M130 215 L72 300 104 320 170 245 M270 215 L328 300 296 320 230 245" fill="url(#a)" stroke="#b7d9ff" stroke-width="7"/>
<path d="M110 345 L35 420" stroke="#8ac4ff" stroke-width="8"/><path d="M35 420 L65 410 48 395Z" fill="#d9f3ff"/>
<path d="M290 345 L365 420" stroke="#8ac4ff" stroke-width="8"/><path d="M365 420 L335 410 352 395Z" fill="#d9f3ff"/>
</svg>